<svg width="900" height="900" viewBox="0 0 900 900" fill="none" xmlns="http://www.w3.org/2000/svg">
<path fill-rule="evenodd" clip-rule="evenodd" d="M450 900C698.528 900 900 698.528 900 450C900 201.472 698.528 0 450 0C201.472 0 0 201.472 0 450C0 698.528 201.472 900 450 900ZM450 834.545C662.379 834.545 834.545 662.379 834.545 450C834.545 237.621 662.379 65.4545 450 65.4545C237.621 65.4545 65.4545 237.621 65.4545 450C65.4545 662.379 237.621 834.545 450 834.545Z" fill="white"/>
<path d="M312.416 599.148C285.002 599.148 261.533 589.378 242.011 569.839C222.488 550.301 212.727 526.812 212.727 499.375C212.727 471.937 222.488 448.449 242.011 428.911C261.533 409.372 285.002 399.602 312.416 399.602C339.831 399.602 363.299 409.372 382.822 428.911C402.344 448.449 412.105 471.937 412.105 499.375C412.105 526.812 402.344 550.301 382.822 569.839C363.299 589.378 339.831 599.148 312.416 599.148ZM312.416 549.261C326.124 549.261 337.862 544.373 347.631 534.595C357.401 524.817 362.277 513.077 362.261 499.375C362.261 485.656 357.376 473.908 347.606 464.13C337.837 454.353 326.107 449.472 312.416 449.489C298.709 449.489 286.971 454.377 277.201 464.155C267.432 473.933 262.555 485.673 262.572 499.375C262.572 513.094 267.457 524.842 277.226 534.62C286.996 544.397 298.726 549.278 312.416 549.261ZM549.178 499.375C510.964 499.375 478.565 486.072 451.981 459.466C425.397 432.86 412.105 400.434 412.105 362.187C412.105 323.941 425.397 291.515 451.981 264.909C478.565 238.303 510.964 225 549.178 225C587.392 225 619.791 238.303 646.374 264.909C672.958 291.515 686.25 323.941 686.25 362.187C686.25 400.434 672.958 432.86 646.374 459.466C619.791 486.072 587.392 499.375 549.178 499.375ZM499.333 673.977C478.565 673.977 460.911 666.702 446.373 652.152C431.835 637.602 424.566 619.934 424.566 599.148C424.566 578.362 431.835 560.694 446.373 546.143C460.911 531.593 478.565 524.318 499.333 524.318C520.102 524.318 537.755 531.593 552.293 546.143C566.831 560.694 574.1 578.362 574.1 599.148C574.1 619.934 566.831 637.602 552.293 652.152C537.755 666.702 520.102 673.977 499.333 673.977ZM549.178 449.489C573.685 449.489 594.353 441.074 611.184 424.246C628.015 407.418 636.422 386.732 636.406 362.187C636.406 337.66 627.998 316.974 611.184 300.129C594.37 283.284 573.701 274.87 549.178 274.886C524.671 274.886 504.002 283.301 487.171 300.129C470.34 316.957 461.933 337.643 461.95 362.187C461.95 386.715 470.357 407.401 487.171 424.246C503.985 441.091 524.654 449.505 549.178 449.489ZM499.333 624.091C506.394 624.091 512.318 621.696 517.103 616.907C521.888 612.118 524.272 606.198 524.255 599.148C524.255 592.08 521.863 586.152 517.078 581.363C512.293 576.574 506.378 574.188 499.333 574.205C492.272 574.205 486.349 576.599 481.564 581.388C476.778 586.177 474.394 592.097 474.411 599.148C474.411 606.215 476.803 612.143 481.588 616.932C486.374 621.721 492.288 624.108 499.333 624.091Z" fill="white"/>
</svg>
